<svg xmlns="http://www.w3.org/2000/svg" viewBox="0 0 64 64" role="img" aria-labelledby="title desc">
    <title id="title">OrchidTodo icon</title>
    <desc id="desc">A checklist icon for the OrchidTodo task management application.</desc>
    <rect width="64" height="64" rx="16" fill="#4f46e5"/>
    <path d="M22 14h20a4 4 0 0 1 4 4v30a4 4 0 0 1-4 4H22a4 4 0 0 1-4-4V18a4 4 0 0 1 4-4Z" fill="#ffffff"/>
    <path d="M26 13h12a3 3 0 0 1 3 3v3H23v-3a3 3 0 0 1 3-3Z" fill="#c7d2fe"/>
    <path d="m25 30 4 4 8-9" fill="none" stroke="#4f46e5" stroke-linecap="round" stroke-linejoin="round" stroke-width="4"/>
    <path d="M40 31h5" fill="none" stroke="#a5b4fc" stroke-linecap="round" stroke-width="4"/>
    <path d="m25 43 4 4 8-9" fill="none" stroke="#4f46e5" stroke-linecap="round" stroke-linejoin="round" stroke-width="4"/>
    <path d="M40 44h5" fill="none" stroke="#a5b4fc" stroke-linecap="round" stroke-width="4"/>
    <path d="M48 16c3 2 5 5 5 9-4 0-7-2-9-5 0-3 1-5 4-4Z" fill="#a7f3d0"/>
</svg>
